Format : AVI
Format/Info : Audio Video Interleave
File size : 1.81 GiB
Duration : 2h 6mn
Overall bit rate : 2 056 Kbps
Writing application : VirtualDubMod 1.5.10.2 (build 2540/release)
Writing library : VirtualDubMod build 2540/release

Video
ID : 0
Format : MPEG-4 Visual
Format profile : Advanced Simple@L5
Format settings, BVOP : 2
Format settings, QPel : No
Format settings, GMC : No warppoints
Format settings, Matrix : Default (MPEG)
Muxing mode : Packed bitstream
Codec ID : XVID
Codec ID/Hint : XviD
Duration : 2h 6mn
Bit rate : 1 791 Kbps
Width : 720 pixels
Height : 304 pixels
Display aspect ratio : 2.35:1
Frame rate : 23.976 fps
Color space : YUV
Chroma subsampling : 4:2:0
Bit depth : 8 bits
Scan type : Progressive
Compression mode : Lossy
Bits/(Pixel*Frame) : 0.341
Stream size : 1.58 GiB (87%)
Writing library : XviD 64

Audio
ID : 1
Format : AC-3
Format/Info : Audio Coding 3
Mode extension : CM (complete main)
Codec ID : 2000
Duration : 2h 6mn
Bit rate mode : Constant
Bit rate : 256 Kbps
Channel(s) : 6 channels
Channel positions : Front: L C R, Side: L R, LFE
Sampling rate : 48.0 KHz
Bit depth : 16 bits
Compression mode : Lossy
Stream size : 231 MiB (12%)
Alignment : Aligned on interleaves
Interleave, duration : 42 ms (1.00 video frame)
Interleave, preload duration : 512 ms









 
http://www.imdb.com/title/tt1270798/









In 1962, the United States government enlists the help of Mutants with superhuman abilities to stop a malicious dictator who is determined to start world war III.
Director:
Matthew Vaughn
Writers:
Ashley Miller (screenplay), Zack Stentz (screenplay), and 4 more credits »
Stars:
James McAvoy, Michael Fassbender and Jennifer Lawrence





















Source Used


X-Men.First.Class.2011.BluRay.720p.x264.DTS-HDChina.......Thanks


Who cares if a million copies out now i had stuff on.This is my copy with hardcoded english subs for the foreign speaking parts

You'll either still want or not


Enjoy





Greetz to IMAGiNE,A7X,BDK,TOXiC,Dankaholic,Rx,Boobyblue,TaRiQ786
